<svg version="1.1" id="Layer_1" xmlns="http://www.w3.org/2000/svg" xmlns:xlink="http://www.w3.org/1999/xlink" x="0px" y="0px"
	 width="100%" viewBox="0 0 220 215" enable-background="new 0 0 220 215" xml:space="preserve">
<path fill="#FEFEFF" opacity="1.000000" stroke="none" 
	d="
M126.000000,216.000000 
	C84.000000,216.000000 42.500004,216.000000 1.000005,216.000000 
	C1.000004,144.333344 1.000004,72.666679 1.000002,1.000015 
	C74.333321,1.000010 147.666641,1.000010 220.999969,1.000005 
	C220.999985,72.666649 220.999985,144.333298 221.000000,215.999969 
	C189.500000,216.000000 158.000000,216.000000 126.000000,216.000000 
M60.778393,50.714161 
	C60.778393,50.714161 61.143524,50.975430 61.362324,51.668526 
	C62.776512,54.628262 65.158623,55.156490 68.293785,55.142582 
	C95.891716,55.020130 123.490456,55.059174 151.088867,55.104664 
	C152.857773,55.107582 154.625916,55.560959 156.243927,56.647793 
	C156.257217,79.454552 156.270493,102.261307 156.029800,125.870300 
	C154.664597,138.463928 148.644760,148.663940 139.335953,157.102539 
	C141.763184,160.227234 143.858414,162.924515 146.192123,165.928802 
	C158.579056,154.980316 165.820251,142.093765 167.005402,125.045639 
	C167.005402,98.116592 167.005402,71.187546 167.005402,44.138870 
	C129.907333,44.138870 93.235527,44.138870 55.842365,44.138870 
	C57.191376,45.783337 58.097385,46.887783 59.053574,48.481750 
	C59.187794,48.818851 59.434006,49.016327 59.923824,49.630592 
	C60.209114,49.865036 60.494400,50.099480 60.771370,50.193970 
	C60.771370,50.193970 60.661236,50.280731 60.778393,50.714161 
M88.982094,106.357819 
	C88.688034,106.072525 88.393974,105.787231 88.062904,105.142357 
	C88.062904,105.142357 87.737785,104.984322 87.598900,104.443062 
	C87.095016,103.913696 86.591133,103.384331 86.051651,102.947090 
	C86.051651,102.947090 86.149376,102.961304 86.006645,102.318260 
	C85.697731,102.017982 85.388824,101.717705 85.047470,100.929901 
	C84.701584,100.617035 84.355690,100.304161 83.873642,99.395546 
	C83.276466,98.572906 82.679291,97.750259 82.006378,96.299881 
	C81.496475,96.016838 80.986572,95.733803 80.476669,95.450760 
	C80.466446,96.029907 80.456223,96.609047 80.420761,98.099632 
	C80.414330,112.133255 80.361237,126.167244 80.470871,140.199951 
	C80.482315,141.665237 81.456902,143.122971 82.893280,144.789917 
	C86.777664,144.789917 90.662048,144.789917 94.839973,144.789917 
	C94.839973,134.780716 94.839973,125.413765 95.078362,115.397186 
	C94.698303,114.628845 94.318237,113.860504 93.676834,112.749100 
	C93.676834,112.749100 93.261063,112.634506 93.179306,112.797821 
	C93.179306,112.797821 93.361900,112.801933 93.228615,112.236565 
	C92.930779,112.011559 92.632935,111.786560 92.316879,111.787163 
	C92.316879,111.787163 92.524117,111.696159 92.383476,111.057983 
	C91.958214,110.577072 91.532959,110.096153 91.046860,109.091370 
	C90.688408,108.731010 90.329948,108.370651 89.865318,107.490211 
	C89.592094,107.281227 89.318878,107.072243 89.029243,106.965111 
	C89.029243,106.965111 89.132385,106.967705 88.982094,106.357819 
M138.850494,78.124001 
	C134.595078,78.124001 130.339661,78.124001 125.853180,78.124001 
	C125.853180,91.464012 125.853180,104.692421 125.174149,117.876602 
	C116.432091,106.610054 107.662033,95.365082 98.958443,84.068893 
	C93.712105,77.259789 90.130760,76.081253 81.134224,78.612389 
	C96.415565,99.061722 111.635201,119.443382 126.873741,139.810898 
	C131.098511,145.457626 132.681488,145.943542 140.077316,143.971008 
	C140.077316,122.890091 140.083221,101.750450 140.045609,80.610878 
	C140.044601,80.044365 139.572357,79.478691 138.850494,78.124001 
M62.573257,70.432449 
	C59.654762,66.484413 56.736271,62.536377 53.151630,57.687202 
	C53.050346,59.414169 52.986473,59.994385 52.986603,60.574585 
	C52.991108,81.043587 52.902710,101.513214 53.033970,121.981438 
	C53.242008,154.421646 80.174362,179.955383 112.632896,178.510086 
	C121.307350,178.123840 129.568558,176.070007 137.368500,171.284332 
	C136.437790,169.992859 135.686844,169.119385 135.122574,168.138519 
	C132.731583,163.982224 130.391388,162.429840 124.913834,164.578049 
	C112.931900,169.277161 100.676674,168.158188 89.154823,162.259262 
	C73.290550,154.137115 65.357735,140.653793 63.681763,122.267433 
	C63.696808,107.116142 63.746624,91.964714 63.683315,76.813751 
	C63.675316,74.898796 63.073517,72.986328 62.573257,70.432449 
z"/>
<path fill="#333592" opacity="1.000000" stroke="none" 
	d="
M166.816177,125.960663 
	C165.820251,142.093765 158.579056,154.980316 146.192123,165.928802 
	C143.858414,162.924515 141.763184,160.227234 139.335953,157.102539 
	C148.644760,148.663940 154.664597,138.463928 156.377319,125.662643 
	C157.094910,125.607689 157.464981,125.760399 157.835052,125.913109 
	C157.891754,125.435944 157.997910,124.958794 157.998047,124.481613 
	C158.004715,102.864845 158.029312,81.247963 157.931870,59.631626 
	C157.926117,58.353725 156.929794,57.080296 156.394424,55.804783 
	C154.625916,55.560959 152.857773,55.107582 151.088867,55.104664 
	C123.490456,55.059174 95.891716,55.020130 68.293785,55.142582 
	C65.158623,55.156490 62.776512,54.628262 61.390301,51.189800 
	C61.165932,50.567627 60.913582,50.424179 60.661236,50.280731 
	C60.661236,50.280731 60.771370,50.193970 60.735474,49.971825 
	C60.397118,49.524513 60.094662,49.299343 59.792206,49.074173 
	C59.434006,49.016327 59.187794,48.818851 59.316093,47.988586 
	C61.132576,46.664597 62.683365,45.115719 64.240967,45.108829 
	C96.213341,44.967426 128.186615,45.044518 160.159348,44.953281 
	C164.716110,44.940277 166.124222,46.738239 166.087830,51.244473 
	C165.900848,74.390083 165.983978,97.538048 166.037033,120.685043 
	C166.041061,122.444176 166.544739,124.202148 166.816177,125.960663 
z"/>
<path fill="#363892" opacity="1.000000" stroke="none" 
	d="
M63.537750,123.234154 
	C65.357735,140.653793 73.290550,154.137115 89.154823,162.259262 
	C100.676674,168.158188 112.931900,169.277161 124.913834,164.578049 
	C130.391388,162.429840 132.731583,163.982224 135.122574,168.138519 
	C135.686844,169.119385 136.437790,169.992859 137.368500,171.284332 
	C129.568558,176.070007 121.307350,178.123840 112.632896,178.510086 
	C80.174362,179.955383 53.242008,154.421646 53.033970,121.981438 
	C52.902710,101.513214 52.991108,81.043587 52.986603,60.574585 
	C52.986473,59.994385 53.050346,59.414169 53.151630,57.687202 
	C56.736271,62.536377 59.654762,66.484413 62.418011,71.079613 
	C62.175190,87.772255 62.056450,103.817757 62.066982,119.863167 
	C62.067722,120.987152 63.025181,122.110504 63.537750,123.234154 
z"/>
<path fill="#333491" opacity="1.000000" stroke="none" 
	d="
M139.319870,78.912621 
	C139.572357,79.478691 140.044601,80.044365 140.045609,80.610878 
	C140.083221,101.750450 140.077316,122.890091 140.077316,143.971008 
	C132.681488,145.943542 131.098511,145.457626 126.873741,139.810898 
	C111.635201,119.443382 96.415565,99.061722 81.134224,78.612389 
	C90.130760,76.081253 93.712105,77.259789 98.958443,84.068893 
	C107.662033,95.365082 116.432091,106.610054 125.849152,117.652283 
	C126.683167,108.814034 126.926201,100.200638 126.981178,91.586037 
	C127.059914,79.247635 127.001259,79.247261 139.319870,78.912621 
z"/>
<path fill="#2F3291" opacity="1.000000" stroke="none" 
	d="
M84.009796,99.991295 
	C84.355690,100.304161 84.701584,100.617035 85.140701,101.496086 
	C85.539085,102.361954 85.844231,102.661629 86.149376,102.961304 
	C86.149376,102.961304 86.051651,102.947090 86.077133,103.213257 
	C86.647667,103.981064 87.192726,104.482689 87.737785,104.984322 
	C87.737785,104.984322 88.062904,105.142357 88.152802,105.630943 
	C88.539261,106.402252 88.835823,106.684982 89.132385,106.967705 
	C89.132385,106.967705 89.029243,106.965111 89.127121,107.153137 
	C89.473831,107.564209 89.722656,107.787247 89.971489,108.010292 
	C90.329948,108.370651 90.688408,108.731010 91.082275,109.722382 
	C91.586510,110.800980 92.055313,111.248566 92.524117,111.696159 
	C92.524117,111.696159 92.316879,111.787163 92.331978,111.989594 
	C92.685349,112.395332 93.023621,112.598633 93.361900,112.801933 
	C93.361900,112.801933 93.179306,112.797821 93.202187,112.957321 
	C93.265602,113.459206 93.435646,113.715591 93.846146,114.174156 
	C94.251389,114.990501 94.545685,115.518661 94.839973,116.046822 
	C94.839973,125.413765 94.839973,134.780716 94.839973,144.789917 
	C90.662048,144.789917 86.777664,144.789917 82.440750,144.245911 
	C81.992775,130.746048 81.927177,117.789291 82.090538,104.835426 
	C82.110992,103.212898 83.340492,101.605629 84.009796,99.991295 
z"/>
<path fill="#373881" opacity="1.000000" stroke="none" 
	d="
M166.910797,125.503151 
	C166.544739,124.202148 166.041061,122.444176 166.037033,120.685043 
	C165.983978,97.538048 165.900848,74.390083 166.087830,51.244473 
	C166.124222,46.738239 164.716110,44.940277 160.159348,44.953281 
	C128.186615,45.044518 96.213341,44.967426 64.240967,45.108829 
	C62.683365,45.115719 61.132576,46.664597 59.291004,47.743828 
	C58.097385,46.887783 57.191376,45.783337 55.842365,44.138870 
	C93.235527,44.138870 129.907333,44.138870 167.005402,44.138870 
	C167.005402,71.187546 167.005402,98.116592 166.910797,125.503151 
z"/>
<path fill="#303085" opacity="1.000000" stroke="none" 
	d="
M156.319183,56.226288 
	C156.929794,57.080296 157.926117,58.353725 157.931870,59.631626 
	C158.029312,81.247963 158.004715,102.864845 157.998047,124.481613 
	C157.997910,124.958794 157.891754,125.435944 157.835052,125.913109 
	C157.464981,125.760399 157.094910,125.607689 156.504303,125.261520 
	C156.270493,102.261307 156.257217,79.454552 156.319183,56.226288 
z"/>
<path fill="#292A7D" opacity="1.000000" stroke="none" 
	d="
M83.941719,99.693420 
	C83.340492,101.605629 82.110992,103.212898 82.090538,104.835426 
	C81.927177,117.789291 81.992775,130.746048 81.986420,144.143066 
	C81.456902,143.122971 80.482315,141.665237 80.470871,140.199951 
	C80.361237,126.167244 80.414330,112.133255 80.708923,97.604202 
	C81.358757,97.048393 81.720444,96.988007 82.082123,96.927628 
	C82.679291,97.750259 83.276466,98.572906 83.941719,99.693420 
z"/>
<path fill="#2C3083" opacity="1.000000" stroke="none" 
	d="
M63.609756,122.750793 
	C63.025181,122.110504 62.067722,120.987152 62.066982,119.863167 
	C62.056450,103.817757 62.175190,87.772255 62.504799,71.399742 
	C63.073517,72.986328 63.675316,74.898796 63.683315,76.813751 
	C63.746624,91.964714 63.696808,107.116142 63.609756,122.750793 
z"/>
<path fill="#2C2D7A" opacity="1.000000" stroke="none" 
	d="
M139.085175,78.518311 
	C127.001259,79.247261 127.059914,79.247635 126.981178,91.586037 
	C126.926201,100.200638 126.683167,108.814034 126.188660,117.674400 
	C125.853180,104.692421 125.853180,91.464012 125.853180,78.124001 
	C130.339661,78.124001 134.595078,78.124001 139.085175,78.518311 
z"/>
<path fill="#7A7BB2" opacity="1.000000" stroke="none" 
	d="
M82.044250,96.613754 
	C81.720444,96.988007 81.358757,97.048393 80.721542,97.148483 
	C80.456223,96.609047 80.466446,96.029907 80.476669,95.450760 
	C80.986572,95.733803 81.496475,96.016838 82.044250,96.613754 
z"/>
<path fill="#7A7BB2" opacity="1.000000" stroke="none" 
	d="
M94.959167,115.722000 
	C94.545685,115.518661 94.251389,114.990501 93.884758,113.972900 
	C93.812424,113.483467 93.938179,113.092163 93.938179,113.092163 
	C94.318237,113.860504 94.698303,114.628845 94.959167,115.722000 
z"/>
<path fill="#292A7D" opacity="1.000000" stroke="none" 
	d="
M87.668343,104.713692 
	C87.192726,104.482689 86.647667,103.981064 86.094925,103.167206 
	C86.591133,103.384331 87.095016,103.913696 87.668343,104.713692 
z"/>
<path fill="#292A7D" opacity="1.000000" stroke="none" 
	d="
M92.453796,111.377075 
	C92.055313,111.248566 91.586510,110.800980 91.112701,109.984314 
	C91.532959,110.096153 91.958214,110.577072 92.453796,111.377075 
z"/>
<path fill="#292A7D" opacity="1.000000" stroke="none" 
	d="
M86.078011,102.639786 
	C85.844231,102.661629 85.539085,102.361954 85.156929,101.739853 
	C85.388824,101.717705 85.697731,102.017982 86.078011,102.639786 
z"/>
<path fill="#292A7D" opacity="1.000000" stroke="none" 
	d="
M93.807510,112.920631 
	C93.938179,113.092163 93.812424,113.483467 93.773811,113.684723 
	C93.435646,113.715591 93.265602,113.459206 93.243065,112.875656 
	C93.261063,112.634506 93.676834,112.749100 93.807510,112.920631 
z"/>
<path fill="#292A7D" opacity="1.000000" stroke="none" 
	d="
M93.295258,112.519249 
	C93.023621,112.598633 92.685349,112.395332 92.341087,111.876785 
	C92.632935,111.786560 92.930779,112.011559 93.295258,112.519249 
z"/>
<path fill="#292A7D" opacity="1.000000" stroke="none" 
	d="
M89.918404,107.750252 
	C89.722656,107.787247 89.473831,107.564209 89.135330,107.102203 
	C89.318878,107.072243 89.592094,107.281227 89.918404,107.750252 
z"/>
<path fill="#292A7D" opacity="1.000000" stroke="none" 
	d="
M89.057236,106.662766 
	C88.835823,106.684982 88.539261,106.402252 88.171310,105.810730 
	C88.393974,105.787231 88.688034,106.072525 89.057236,106.662766 
z"/>
<path fill="#373881" opacity="1.000000" stroke="none" 
	d="
M59.858017,49.352383 
	C60.094662,49.299343 60.397118,49.524513 60.739632,50.041805 
	C60.494400,50.099480 60.209114,49.865036 59.858017,49.352383 
z"/>
<path fill="#373881" opacity="1.000000" stroke="none" 
	d="
M60.719814,50.497444 
	C60.913582,50.424179 61.165932,50.567627 61.280899,50.843254 
	C61.143524,50.975430 60.778393,50.714161 60.719814,50.497444 
z"/>
</svg>